<?xml version="1.0" encoding="UTF-8"?>
<svg width="512" height="512" viewBox="0 0 512 512" fill="none" xmlns="http://www.w3.org/2000/svg">
    <!-- Background Circle -->
    <circle cx="256" cy="256" r="256" fill="#2C3E50"/>
    
    <!-- DG Letters -->
    <path d="M180 160h-40v192h40c44.183 0 80-35.817 80-80s-35.817-80-80-80zm0 140h-20V172h20c33.137 0 60 26.863 60 60s-26.863 60-60 60z" fill="#ffffff"/>
    <path d="M332 160h-40v192h40c44.183 0 80-35.817 80-80s-35.817-80-80-80zm0 140h-20V172h20c33.137 0 60 26.863 60 60s-26.863 60-60 60z" fill="#ffffff"/>
</svg> 